<?xml version="1.0" encoding="UTF-8" standalone="no"?>
<!DOCTYPE svg PUBLIC "-//W3C//DTD SVG 1.1//EN" "http://www.w3.org/Graphics/SVG/1.1/DTD/svg11.dtd">
<!-- Created with Vectornator (http://vectornator.io/) -->
<svg height="130.0px" stroke-miterlimit="10" style="fill-rule:nonzero;clip-rule:evenodd;stroke-linecap:round;stroke-linejoin:round;" version="1.1" viewBox="0 0 130 130" width="130.0px" xml:space="preserve" xmlns="http://www.w3.org/2000/svg" xmlns:xlink="http://www.w3.org/1999/xlink">
<defs/>
<g id="Слой-1">
<path d="M62.9934 2.78065C62.8338 2.78544 62.655 2.8215 62.4947 2.82796C62.4622 2.8291 62.4335 2.82965 62.401 2.83097L62.402 2.86221C49.7165 3.39848 34.7424 9.0835 24.3409 17.1245L20.6802 19.9624C-0.210309 36.1126-2.43291 66.8505 15.9509 85.8048L57.9524 127.945L70.707 115.247L70.6748 115.217L76.9755 108.917C77.0805 108.818 78.5477 107.405 79.159 106.815C80.9021 105.132 82.8614 103.232 84.9489 101.157C90.9145 95.2273 96.8745 89.0477 102.435 82.9603C104.982 80.1725 107.398 77.4728 109.647 74.8492C120.996 61.6118 127.638 51.6165 128.498 44.6338C128.665 43.2732 128.624 40.784 128.624 40.784C128.649 40.1588 128.526 39.5819 128.472 38.9754C128.437 38.7007 128.429 38.4004 128.383 38.1341C128.125 36.4125 127.613 34.7824 126.758 33.3089C126.744 33.2837 126.738 33.2723 126.725 33.2474C126.121 32.2184 125.345 31.3038 124.477 30.4432C124.432 30.4043 124.391 30.2962 124.346 30.2598L124.316 30.2921C123.644 29.6462 122.974 28.982 122.162 28.4541C118.759 26.2408 114.499 25.3143 109.62 25.4183C100.679 25.609 89.1984 29.3462 76.0229 36.5354C72.5086 38.453 70.1202 39.6956 68.0287 40.7321C69.1596 38.8418 69.933 37.4226 71.5899 34.8021C71.6734 34.6699 71.6854 34.6783 71.7692 34.5462C71.9246 34.3003 71.9846 34.0875 72.1219 33.847L76.1668 27.4011L76.4056 27.0495C83.0459 16.4952 75.3962 2.95238 63.1224 2.90157L62.9934 2.78065ZM63.5409 20.7723C63.5409 20.7723 65.4042 20.6718 66.0526 22.0673C66.6565 23.3668 65.3976 25.7237 65.2119 26.0651C64.5318 27.166 64.1633 27.8427 63.3114 29.1903C63.2282 29.322 58.1228 37.4548 56.6314 40.2233C54.4449 44.2834 53.4024 47.2767 53.4447 50.0183C53.4415 50.0207 53.3228 50.116 53.3228 50.116C53.3308 50.2315 53.3859 50.3129 53.3953 50.4264C53.3975 50.4661 53.3653 50.5127 53.3681 50.5523L53.3993 50.5513C53.6634 53.5372 54.4155 55.8864 56.9583 58.1596C60.1292 60.9946 63.7264 61.2884 67.503 60.3529C70.956 59.497 75.5406 57.2883 84.6289 52.3294C95.4851 46.4058 104.353 43.5045 110.011 43.3838C110.953 43.3637 112.507 43.4272 113.046 43.4737C118.18 43.9152 116.711 48.0291 115.428 50.432C112.633 55.135 108.183 61.1606 102.028 68.3408C99.85 70.881 97.5373 73.5118 95.0588 76.2252C89.6174 82.1822 83.764 88.2427 77.9048 94.0672C75.8534 96.1062 71.1144 100.682 70.6589 101.116C70.3879 101.375 69.9919 101.763 69.9919 101.763L63.6307 108.127L28.8979 73.257C17.9899 62.0105 19.28 43.7923 31.6752 34.21L35.3359 31.3721C42.9736 25.4675 54.6363 21.0392 63.5409 20.7723Z" fill="#000000" fill-rule="nonzero" opacity="1" stroke="none"/>
</g>
</svg>
